<?xml version="1.0" encoding="utf-8"?>
<!-- Generator: Adobe Illustrator 24.1.2, SVG Export Plug-In . SVG Version: 6.00 Build 0)  -->
<svg version="1.1" id="Warstwa_3" xmlns="http://www.w3.org/2000/svg" xmlns:xlink="http://www.w3.org/1999/xlink" x="0px" y="0px"
	 viewBox="0 0 430 430" style="enable-background:new 0 0 430 430;" xml:space="preserve">
<style type="text/css">
	.st0{fill:#121331;}
	.st1{fill:#08A385;}
	.st2{fill:none;stroke:#121331;stroke-width:14;stroke-linecap:round;stroke-linejoin:round;stroke-miterlimit:10;}
	.st3{fill:none;stroke:#08A385;stroke-width:12;stroke-linecap:round;stroke-linejoin:round;stroke-miterlimit:10;}
	.st4{fill:#06A385;}
	.st5{fill:none;stroke:#121331;stroke-width:12;stroke-linecap:round;stroke-linejoin:round;stroke-miterlimit:10;}
	.st6{fill:#08A789;}
	.st7{fill:#08A284;}
	.st8{fill:#08A688;}
	.st9{fill:#08A88A;}
</style>
<g>
	<path class="st9" d="M144.66,302.38c-0.96,0-1.93-0.23-2.84-0.72c-2.92-1.57-4.01-5.21-2.44-8.13l7.24-13.46
		c1.57-2.92,5.21-4.01,8.13-2.44c2.92,1.57,4.01,5.21,2.44,8.13l-7.24,13.46C148.87,301.23,146.8,302.38,144.66,302.38z"/>
	<path class="st9" d="M78.73,302.35c-0.53,0-1.07-0.07-1.61-0.22c-3.19-0.89-5.06-4.19-4.18-7.39l28.58-103.05
		c0.03-0.09,0.05-0.18,0.08-0.27c0.54-1.64,1.19-3.29,1.93-4.88c0.74-1.61,1.64-3.28,2.67-4.93c0.04-0.06,0.08-0.13,0.12-0.19
		c0.01-0.02,0.03-0.04,0.04-0.06c6.61-10.44,17.38-17.74,29.57-20.05c7.42-1.4,15.14-0.89,22.33,1.48c1.33,0.44,2.46,1.32,3.21,2.51
		c4.02,6.4,7.45,11.57,10.47,16.12c2.39,3.61,4.46,6.72,6.25,9.6c3.99,6.41,6.94,12.1,8.32,19.07c1.88,9.4,0.45,19.58-4.04,28.65
		c-0.03,0.06-0.06,0.12-0.09,0.18l-6.56,12.2c-1.57,2.92-5.21,4.01-8.13,2.44c-2.92-1.57-4.01-5.21-2.44-8.13l6.51-12.11
		c3.28-6.69,4.34-14.1,2.98-20.9c-0.91-4.56-2.73-8.64-6.74-15.07c-1.7-2.73-3.72-5.78-6.06-9.31c-2.75-4.15-5.84-8.8-9.42-14.45
		c-4.69-1.22-9.61-1.39-14.36-0.5c-8.98,1.7-16.89,7.08-21.72,14.77c-0.03,0.05-0.06,0.09-0.09,0.14c-0.01,0.02-0.03,0.05-0.05,0.08
		c-0.72,1.16-1.34,2.32-1.86,3.45c-0.54,1.16-1,2.32-1.39,3.48L84.51,297.95C83.77,300.61,81.36,302.35,78.73,302.35z"/>
	<path class="st9" d="M137.02,173.23c-2.37,0-4.61-1.41-5.56-3.74c-1.25-3.07,0.22-6.57,3.29-7.82l0.11-0.04
		c3.07-1.25,6.57,0.22,7.82,3.29c1.25,3.07-0.22,6.57-3.29,7.82l-0.11,0.04C138.54,173.09,137.77,173.23,137.02,173.23z"/>
	<path class="st0" d="M210.58,85.05c-7.03-12.71-20.44-15.86-23.21-16.39c-3.25-0.94-7.56-1.55-12.2-1.25
		c-2.62-7.56-8.65-13.63-16.57-16.24c-13.72-4.51-28.55,2.98-33.06,16.7c-2.18,6.65-1.65,13.74,1.5,19.99s8.55,10.89,15.2,13.07
		c0.58,0.19,1.16,0.35,1.73,0.5c-7.14,34.16,13.5,45.93,14.49,46.47c0.08,0.04,0.16,0.08,0.24,0.12l20.34,9.97
		c0.07,0.03,0.13,0.06,0.2,0.09c1.78,0.79,3.66,1.17,5.52,1.17c4.27,0,8.44-2.01,11.04-5.63c3.55-4.96,7.96-13.35,12.07-22.97
		C216.03,111.9,216.94,96.55,210.58,85.05z M145.99,89.53c-3.6-1.18-6.53-3.7-8.23-7.08c-1.71-3.38-2-7.23-0.81-10.83
		c2.44-7.43,10.48-11.49,17.91-9.05c4,1.32,7.05,4.13,8.61,7.74c-6.39,2.98-12.26,8.53-15.74,18.13c-0.17,0.48-0.34,0.96-0.5,1.43
		C146.82,89.78,146.41,89.66,145.99,89.53z M196.84,125.9c-3.74,8.76-7.78,16.51-10.8,20.73c-0.41,0.57-1.18,0.78-1.86,0.51
		l-19.99-9.8c-1.57-0.98-17.18-11.72-5.19-44.82c2.78-7.67,7.68-11.05,12.45-12.41c0.38-0.06,0.74-0.15,1.09-0.28
		c5.57-1.24,10.71,0.11,11.7,0.4c0.28,0.08,0.56,0.15,0.85,0.19c0.1,0.02,10.2,1.76,14.99,10.42
		C204.48,98.81,203.37,110.92,196.84,125.9z"/>
	<g>
		<path class="st0" d="M328.07,373.26c-0.15,0-0.31,0-0.46,0l-39.12-0.53c-3.12-0.04-6.03-1.3-8.21-3.54
			c-2.18-2.24-3.36-5.19-3.32-8.31l0.44-32.32c0.09-6.66,2.79-12.91,7.59-17.58c4.8-4.67,11.11-7.22,17.78-7.1l25.79,0.35
			c8.78,0.12,17.01,3.67,23.18,10s9.49,14.66,9.37,23.44l-0.04,3.04c-0.12,8.78-3.67,17.01-10,23.18
			C344.83,369.94,336.68,373.26,328.07,373.26z M288.96,360.72l38.82,0.53c5.59,0.04,10.87-2.04,14.91-5.97
			c4.04-3.93,6.3-9.16,6.38-14.74l0.04-3.04c0.08-5.58-2.04-10.87-5.97-14.91c-3.93-4.04-9.16-6.3-14.74-6.38l-25.79-0.35
			c-3.43-0.01-6.74,1.27-9.25,3.71c-2.5,2.44-3.91,5.68-3.96,9.14l0,0L288.96,360.72z M283.39,328.63L283.39,328.63L283.39,328.63z"
			/>
		<path class="st0" d="M220.96,290.41l-142.24-0.06c0,0,0,0,0,0c-3.31,0-6,2.68-6,6c0,3.31,2.68,6,6,6l142.24,0.06
			c18.12,0,32.87,14.74,32.87,32.87c0,18.12-14.74,32.87-32.86,32.87l-53.01-0.04c0,0,0,0,0,0c0,0,0,0,0,0c0,0,0,0,0,0l-86.37,0.01
			c2.83-12.55,13.92-21.36,23.94-21.36h104.79c3.31,0,6-2.69,6-6s-2.69-6-6-6H105.52c-19.4,0-36.51,18.38-36.62,39.33
			c-0.01,1.6,0.62,3.13,1.75,4.26c1.13,1.13,2.66,1.77,4.25,1.77l93.05-0.01l53.01,0.04c24.74,0,44.87-20.13,44.87-44.87
			S245.7,290.41,220.96,290.41z"/>
	</g>
	<path class="st9" d="M204.44,323.62c-3.85,0-7.86-0.67-12.04-2.03c-0.67-0.21-1.29-0.54-1.84-0.97l-52.88-41.16
		c-0.65-0.51-1.19-1.14-1.58-1.86l-28.4-52.12c-0.04-0.08-0.09-0.17-0.13-0.25c-0.54-1.12-13.11-27.49-1.08-44.06
		c1.95-2.68,5.7-3.28,8.38-1.33c2.68,1.95,3.28,5.7,1.33,8.38c-6.43,8.86-0.71,25.73,2.11,31.66l27.73,50.88l51.02,39.72
		c15.71,4.55,23.52-6.25,26.6-12.46l-56.02-43.53c-0.65-0.51-1.2-1.15-1.59-1.88l-15.02-27.67c-1.58-2.91-0.5-6.55,2.41-8.14
		c2.91-1.58,6.56-0.5,8.14,2.41L176,245.78l58.63,45.56c1.98,1.54,2.8,4.15,2.04,6.55c-0.2,0.63-5.05,15.56-18.31,22.39
		C214.04,322.51,209.38,323.62,204.44,323.62z"/>
</g>
</svg>
